<?xml version="1.0" standalone="no"?>
<!DOCTYPE svg PUBLIC "-//W3C//DTD SVG 20010904//EN"
 "http://www.w3.org/TR/2001/REC-SVG-20010904/DTD/svg10.dtd">
<svg version="1.0" xmlns="http://www.w3.org/2000/svg"
 width="200.000000pt" height="200.000000pt" viewBox="0 0 200.000000 200.000000"
 preserveAspectRatio="xMidYMid meet">
<metadata>
Created by potrace 1.11, written by Peter Selinger 2001-2013
</metadata>
<g transform="translate(0.000000,200.000000) scale(0.100000,-0.100000)"
fill="#000000" stroke="none">
<path d="M0 1000 l0 -1000 1000 0 1000 0 0 1000 0 1000 -1000 0 -1000 0 0
-1000z m685 225 c30 -15 43 -29 53 -59 17 -54 1 -112 -39 -134 -16 -9 -29 -19
-29 -22 0 -3 14 -11 30 -18 58 -26 79 -116 41 -178 -31 -51 -73 -64 -210 -64
l-121 0 0 243 c0 134 3 247 8 251 4 4 57 6 117 4 84 -3 119 -8 150 -23z m490
-5 c0 -24 -2 -25 -77 -28 l-78 -3 0 -219 0 -220 -30 0 -30 0 0 220 0 220 -80
0 -80 0 0 30 0 30 188 -2 187 -3 0 -25z m301 19 c90 -23 125 -120 68 -188 -14
-17 -32 -31 -40 -31 -8 0 -14 -4 -14 -10 0 -5 7 -10 16 -10 9 0 32 -16 51 -35
33 -33 35 -39 31 -86 -4 -34 -13 -58 -29 -75 -44 -47 -69 -54 -199 -54 l-120
0 0 250 0 250 96 0 c52 0 115 -5 140 -11z"/>
<path d="M480 1115 l0 -88 74 5 c100 7 126 24 126 83 0 59 -24 75 -124 82
l-76 6 0 -88z"/>
<path d="M480 890 l0 -92 86 3 c79 4 87 6 110 32 13 16 24 41 24 57 0 16 -11
41 -24 57 -23 26 -31 28 -110 32 l-86 3 0 -92z"/>
<path d="M1304 1187 c-3 -8 -4 -45 -2 -83 l3 -69 40 -3 c61 -5 124 7 146 29
22 22 25 76 6 103 -24 32 -182 51 -193 23z"/>
<path d="M1300 890 l0 -92 90 4 c107 4 132 20 134 87 1 67 -25 85 -134 89
l-90 4 0 -92z"/>
</g>
</svg>
